<?xml version="1.0" encoding="utf-8"?>
<!-- Generator: Adobe Illustrator 16.0.0, SVG Export Plug-In . SVG Version: 6.00 Build 0)  -->
<!DOCTYPE svg PUBLIC "-//W3C//DTD SVG 1.0//EN" "http://www.w3.org/TR/2001/REC-SVG-20010904/DTD/svg10.dtd">
<svg version="1.0" id="Layer_1" xmlns="http://www.w3.org/2000/svg" xmlns:xlink="http://www.w3.org/1999/xlink" x="0px" y="0px"
	 width="204.369px" height="24.26px" viewBox="0 0 204.369 24.26" enable-background="new 0 0 204.369 24.26" xml:space="preserve">
<g>
	<path fill="#048980" d="M1.759,4.595c0-1.156,0-1.474-0.578-1.821L0.69,2.485c-0.202-0.173-0.202-0.693,0-0.867
		C1.904,1.33,3.58,0.636,5.112,0c0.173,0,0.375,0.058,0.491,0.202c-0.058,1.185-0.087,2.399-0.087,4.22v5.317
		c0,0.26,0.058,0.347,0.203,0.347c0.029,0,0.173-0.058,0.462-0.231C6.817,9.421,8.06,8.699,9.504,8.699
		c2.428,0,3.642,1.647,3.642,3.642v4.971c0,2.023,0.116,2.254,1.156,2.37l0.462,0.058c0.231,0.174,0.231,0.838-0.029,1.012
		c-0.896-0.059-2.109-0.087-3.497-0.087c-1.243,0-2.485,0.028-3.121,0.087c-0.26-0.174-0.26-0.838-0.029-1.012l0.52-0.087
		c0.665-0.115,0.78-0.317,0.78-1.907v-5c0-1.012-0.606-1.937-2.023-1.937c-0.809,0-1.387,0.375-1.618,0.694
		c-0.173,0.202-0.231,0.549-0.231,1.069v5.173c0,1.59,0.116,1.792,0.78,1.907l0.521,0.087c0.231,0.174,0.231,0.838-0.029,1.012
		c-0.896-0.059-1.821-0.087-3.208-0.087c-1.185,0-2.399,0.028-3.381,0.087c-0.26-0.174-0.26-0.838-0.029-1.012l0.52-0.058
		c0.954-0.116,1.069-0.347,1.069-2.37V4.595z"/>
	<path fill="#048980" d="M27.948,16.848c0,1.705,0.087,2.457,0.78,2.457c0.376,0,0.81-0.115,1.156-0.23
		c0.26,0.057,0.289,1.098-0.087,1.242c-2.832,0.115-5.26,1.04-5.346,1.04c-0.203-0.028-0.318-0.173-0.347-0.347
		c0.058-0.347,0.087-0.809,0.087-1.04c0-0.174-0.145-0.289-0.318-0.289c-1.127,0.722-2.139,1.388-3.931,1.388
		c-2.398,0-3.381-1.243-3.381-3.699v-4.914c0-1.532-0.173-1.676-0.867-1.878l-0.376-0.116c-0.202-0.26-0.173-0.809,0.116-1.012
		c0.954-0.029,1.965-0.116,2.803-0.26c0.867-0.145,1.705-0.492,1.821-0.492c0.173,0,0.318,0.203,0.347,0.347
		c-0.058,0.722-0.086,1.502-0.086,2.543v4.769c0,1.387,0.202,2.601,2.052,2.601c0.809,0,1.271-0.376,1.503-0.55
		c0.202-0.145,0.318-0.577,0.318-0.866V12.08c0-1.156-0.202-1.416-1.243-1.561l-0.405-0.058c-0.231-0.203-0.202-0.896,0.145-1.012
		c1.041-0.058,2.081-0.173,3.006-0.289c1.011-0.145,1.878-0.462,2.052-0.462c0.116,0,0.26,0.145,0.289,0.347
		c-0.029,0.52-0.087,1.474-0.087,2.543V16.848z"/>
	<path fill="#048980" d="M32.192,12.947c0-1.156,0-1.503-0.549-1.85l-0.404-0.26c-0.203-0.173-0.203-0.693,0-0.867
		c1.329-0.376,3.381-1.156,4.277-1.676c0.231,0,0.405,0.086,0.521,0.26c0,0.405-0.087,1.099-0.087,1.301
		c0,0.173,0.058,0.231,0.145,0.231c0.087,0,0.375-0.145,0.549-0.231c0.636-0.376,1.936-1.156,3.323-1.156
		c1.041,0,1.937,0.347,2.601,1.099c0.347,0.404,0.52,0.52,0.694,0.52c0.115,0,0.375-0.202,0.925-0.491
		c0.636-0.347,1.734-1.127,3.294-1.127c2.283,0,3.497,1.647,3.497,3.642v4.971c0,2.023,0.115,2.254,1.069,2.37l0.462,0.058
		c0.231,0.174,0.231,0.838-0.029,1.012c-0.896-0.059-1.994-0.087-3.381-0.087c-1.156,0-2.37,0.028-3.15,0.087
		c-0.26-0.174-0.26-0.838-0.029-1.012l0.462-0.058c0.723-0.087,0.838-0.347,0.838-1.937v-4.913c0-1.098-0.607-2.023-1.936-2.023
		c-0.81,0-1.417,0.375-1.619,0.723c-0.116,0.173-0.202,0.462-0.202,0.867v5.347c0,1.59,0.116,1.85,0.78,1.937l0.462,0.058
		c0.231,0.174,0.231,0.838-0.029,1.012c-0.896-0.059-1.821-0.087-3.121-0.087c-1.156,0-2.312,0.028-3.063,0.087
		c-0.26-0.174-0.26-0.838-0.029-1.012l0.462-0.058c0.665-0.087,0.781-0.347,0.781-1.937v-4.913c0-1.098-0.578-2.023-1.965-2.023
		c-0.751,0-1.33,0.375-1.561,0.694c-0.173,0.202-0.231,0.549-0.231,1.069v5.173c0,1.59,0.116,1.85,0.838,1.937l0.462,0.058
		c0.231,0.174,0.231,0.838-0.029,1.012c-0.896-0.059-1.82-0.087-3.208-0.087c-1.301,0-2.428,0.028-3.295,0.087
		c-0.289-0.174-0.289-0.838-0.058-1.012l0.462-0.058c0.954-0.116,1.069-0.347,1.069-2.37V12.947z"/>
	<path fill="#048980" d="M63.485,16.704c-0.116,1.966,0.722,2.486,1.3,2.486c0.347,0,0.636-0.087,1.098-0.348
		c0.26,0.059,0.434,0.405,0.347,0.665c-0.347,0.463-1.705,1.562-3.352,1.562c-1.012,0-1.647-0.348-2.428-1.012
		c-0.202-0.174-0.318-0.231-0.462-0.231s-0.318,0.115-0.607,0.317c-0.52,0.376-1.387,0.926-2.457,0.926
		c-1.676,0-3.237-1.012-3.237-3.035c0-1.475,0.896-2.369,3.005-3.006c1.099-0.347,1.908-0.578,2.717-0.809
		c0.521-0.145,0.665-0.347,0.694-0.578c0.029-0.318,0.058-0.636,0.058-0.982c0-1.098-0.434-2.485-1.676-2.485
		c-0.693,0-1.3,0.405-1.503,1.647c-0.058,0.462-0.231,0.722-0.491,0.925c-0.434,0.318-1.561,0.665-2.081,0.665
		c-0.492,0-0.665-0.318-0.665-0.723c0-0.751,0.694-1.676,1.387-2.225c0.983-0.78,2.804-1.763,4.855-1.763
		c2.428,0,3.844,1.214,3.699,4.191L63.485,16.704z M60.017,15.953c0.029-0.462,0-0.549-0.202-0.521
		c-1.301,0.174-2.428,0.665-2.428,2.023c0,0.925,0.665,1.734,1.474,1.734c0.896,0,1.069-0.521,1.098-1.416L60.017,15.953z"/>
	<path fill="#048980" d="M67.701,12.947c0-1.156,0-1.503-0.549-1.85l-0.404-0.26c-0.203-0.173-0.203-0.693,0-0.867
		c1.358-0.376,3.439-1.156,4.277-1.676c0.231,0,0.405,0.086,0.521,0.26c0,0.405-0.087,1.099-0.087,1.301
		c0,0.173,0.058,0.231,0.145,0.231s0.376-0.145,0.549-0.231c0.636-0.376,1.994-1.156,3.323-1.156c2.399,0,3.613,1.647,3.613,3.642
		v4.971c0,2.023,0.115,2.254,1.156,2.37l0.462,0.058c0.231,0.174,0.231,0.838-0.029,1.012c-0.896-0.059-2.11-0.087-3.497-0.087
		c-1.156,0-2.283,0.028-3.121,0.087c-0.26-0.174-0.26-0.838-0.029-1.012l0.52-0.087c0.665-0.115,0.78-0.317,0.78-1.907V12.86
		c0-1.127-0.578-2.052-2.023-2.052c-0.809,0-1.387,0.375-1.618,0.694c-0.174,0.202-0.231,0.549-0.231,1.069v5.173
		c0,1.59,0.116,1.85,0.838,1.937l0.462,0.058c0.231,0.174,0.231,0.838-0.029,1.012c-0.896-0.059-1.82-0.087-3.208-0.087
		c-1.214,0-2.399,0.028-3.411,0.087c-0.26-0.174-0.26-0.838-0.029-1.012l0.462-0.058c1.041-0.116,1.156-0.347,1.156-2.37V12.947z"/>
	<path fill="#048980" d="M88.379,20.933c-2.292,0-3.776-1.304-4.72-2.741v6.068h-1.101V9.201h1.101v2.562
		c0.989-1.506,2.45-2.832,4.72-2.832c2.765,0,5.574,2.225,5.574,5.956v0.045C93.954,18.663,91.144,20.933,88.379,20.933z
		 M92.762,14.932c0-3.012-2.09-4.945-4.495-4.945c-2.382,0-4.675,2-4.675,4.922v0.045c0,2.944,2.293,4.923,4.675,4.923
		c2.495,0,4.495-1.821,4.495-4.9V14.932z"/>
	<path fill="#048980" d="M101.989,19.899c1.775,0,2.989-0.786,3.933-1.798l0.764,0.675c-1.168,1.258-2.54,2.157-4.742,2.157
		c-3.012,0-5.619-2.405-5.619-5.979V14.91c0-3.327,2.337-5.979,5.439-5.979c3.214,0,5.26,2.607,5.26,6.001v0.045
		c0,0.157,0,0.225-0.022,0.404h-9.508C97.696,18.237,99.741,19.899,101.989,19.899z M105.832,14.393
		c-0.157-2.315-1.483-4.451-4.113-4.451c-2.27,0-4.023,1.911-4.226,4.451H105.832z"/>
	<path fill="#048980" d="M116.054,10.235c-2.651,0-4.968,2-4.968,5.73v4.698h-1.101V9.201h1.101v3.259
		c0.9-2.045,2.811-3.529,5.08-3.439v1.214H116.054z"/>
	<path fill="#048980" d="M122.256,20.888c-1.663,0-3.484-0.675-4.697-1.663l0.651-0.877c1.259,0.967,2.652,1.506,4.113,1.506
		c1.551,0,2.765-0.854,2.765-2.18v-0.045c0-1.349-1.438-1.844-3.034-2.293c-1.866-0.539-3.934-1.101-3.934-3.146v-0.045
		c0-1.843,1.551-3.169,3.776-3.169c1.371,0,2.922,0.494,4.068,1.259l-0.585,0.921c-1.056-0.697-2.315-1.146-3.528-1.146
		c-1.574,0-2.607,0.854-2.607,2v0.045c0,1.281,1.551,1.753,3.191,2.225c1.844,0.517,3.776,1.191,3.776,3.214v0.045
		C126.212,19.584,124.459,20.888,122.256,20.888z"/>
	<path fill="#048980" d="M135.012,20.933c-2.293,0-3.776-1.304-4.721-2.741v6.068h-1.102V9.201h1.102v2.562
		c0.989-1.506,2.45-2.832,4.721-2.832c2.764,0,5.574,2.225,5.574,5.956v0.045C140.586,18.663,137.775,20.933,135.012,20.933z
		 M139.395,14.932c0-3.012-2.091-4.945-4.496-4.945c-2.382,0-4.675,2-4.675,4.922v0.045c0,2.944,2.293,4.923,4.675,4.923
		c2.495,0,4.496-1.821,4.496-4.9V14.932z"/>
	<path fill="#048980" d="M148.62,19.899c1.775,0,2.989-0.786,3.933-1.798l0.765,0.675c-1.169,1.258-2.54,2.157-4.742,2.157
		c-3.013,0-5.619-2.405-5.619-5.979V14.91c0-3.327,2.337-5.979,5.438-5.979c3.215,0,5.26,2.607,5.26,6.001v0.045
		c0,0.157,0,0.225-0.021,0.404h-9.508C144.327,18.237,146.373,19.899,148.62,19.899z M152.463,14.393
		c-0.156-2.315-1.482-4.451-4.113-4.451c-2.27,0-4.022,1.911-4.225,4.451H152.463z"/>
	<path fill="#048980" d="M161.692,20.933c-3.304,0-5.844-2.741-5.844-5.956v-0.045c0-3.214,2.562-6.001,5.844-6.001
		c2.157,0,3.507,0.989,4.585,2.113l-0.787,0.809c-0.988-1.012-2.112-1.888-3.82-1.888c-2.607,0-4.631,2.18-4.631,4.922v0.045
		c0,2.765,2.091,4.967,4.721,4.967c1.618,0,2.877-0.831,3.844-1.91l0.764,0.674C165.199,19.989,163.805,20.933,161.692,20.933z"/>
	<path fill="#048980" d="M172.998,20.866c-1.775,0-3.215-0.967-3.215-3.146v-7.507h-1.663V9.201h1.663V5.537h1.102v3.664h4.023
		v1.011h-4.023v7.395c0,1.641,0.967,2.226,2.293,2.226c0.562,0,1.033-0.113,1.686-0.405v1.034
		C174.279,20.731,173.717,20.866,172.998,20.866z"/>
	<path fill="#048980" d="M177.439,6.211V4.706h1.371v1.506H177.439z M177.574,20.664V9.201h1.102v11.463H177.574z"/>
	<path fill="#048980" d="M187.301,20.753h-0.943L181.21,9.201h1.281l4.338,10.227l4.383-10.227h1.236L187.301,20.753z"/>
	<path fill="#048980" d="M199.335,19.899c1.775,0,2.989-0.786,3.933-1.798l0.765,0.675c-1.169,1.258-2.54,2.157-4.742,2.157
		c-3.013,0-5.619-2.405-5.619-5.979V14.91c0-3.327,2.337-5.979,5.438-5.979c3.215,0,5.26,2.607,5.26,6.001v0.045
		c0,0.157,0,0.225-0.021,0.404h-9.508C195.042,18.237,197.088,19.899,199.335,19.899z M203.178,14.393
		c-0.156-2.315-1.482-4.451-4.113-4.451c-2.27,0-4.022,1.911-4.225,4.451H203.178z"/>
</g>
</svg>
