<?xml version="1.0" encoding="utf-8"?>
<!-- Generator: Adobe Illustrator 16.0.0, SVG Export Plug-In . SVG Version: 6.00 Build 0)  -->
<!DOCTYPE svg PUBLIC "-//W3C//DTD SVG 1.0//EN" "http://www.w3.org/TR/2001/REC-SVG-20010904/DTD/svg10.dtd">
<svg version="1.0" id="Layer_1" xmlns="http://www.w3.org/2000/svg" xmlns:xlink="http://www.w3.org/1999/xlink" x="0px" y="0px"
	 width="296px" height="40px" viewBox="0 0 296 40" enable-background="new 0 0 296 40" xml:space="preserve">
<g>
	<path fill="#059B65" d="M2.375,3.152C2.375,2.396,3.023,2,4.536,2h1.008c1.512,0,2.16,0.396,2.16,1.152v9.322
		c1.116-1.332,2.916-2.447,5.075-2.447c3.6,0,5.436,1.836,5.436,5.831v12.202c0,0.756-0.648,1.152-2.16,1.152h-1.008
		c-1.512,0-2.16-0.396-2.16-1.152V16.65c0-1.404-0.72-2.231-2.304-2.231c-1.476,0-2.448,1.26-2.879,2.087v11.555
		c0,0.756-0.648,1.152-2.16,1.152H4.536c-1.512,0-2.16-0.396-2.16-1.152V3.152z"/>
	<path fill="#059B65" d="M21.952,11.395c0-0.756,0.648-1.151,2.16-1.151h1.008c1.512,0,2.16,0.396,2.16,1.151v11.411
		c0,1.403,0.576,2.231,2.16,2.231c1.476,0,2.448-1.26,2.879-2.088V11.395c0-0.756,0.648-1.151,2.16-1.151h1.008
		c1.512,0,2.16,0.396,2.16,1.151v11.411c0,3.707,0.432,4.463,0.432,5.219c0,0.864-3.131,1.152-4.031,1.152
		c-1.152,0-1.224-1.512-1.44-2.483c-1.044,1.367-3.023,2.735-5.363,2.735c-3.6,0-5.292-1.836-5.292-5.831V11.395z"/>
	<path fill="#059B65" d="M41.637,16.65c0-3.6-0.432-4.355-0.432-5.075c0-0.864,3.131-1.152,4.031-1.152
		c1.152,0,1.224,1.44,1.44,2.34c1.044-1.368,2.988-2.735,5.328-2.735c2.483,0,4.031,0.863,4.751,2.735
		c1.08-1.368,3.132-2.735,5.543-2.735c3.6,0,5.255,1.836,5.255,5.831v12.202c0,0.756-0.648,1.152-2.16,1.152h-1.008
		c-1.512,0-2.16-0.396-2.16-1.152V16.65c0-1.404-0.54-2.231-2.124-2.231c-1.476,0-2.412,1.26-2.843,2.087v11.555
		c0,0.756-0.648,1.152-2.16,1.152h-1.008c-1.512,0-2.16-0.396-2.16-1.152V16.65c0-1.404-0.54-2.231-2.124-2.231
		c-1.476,0-2.412,1.26-2.844,2.087v11.555c0,0.756-0.648,1.152-2.16,1.152h-1.008c-1.512,0-2.16-0.396-2.16-1.152V16.65z"/>
	<path fill="#059B65" d="M79.615,17.479V16.29c0-1.367-0.828-2.052-2.808-2.052c-2.627,0-4.175,1.152-4.607,1.152
		c-0.756,0-1.872-2.124-1.872-2.88c0-1.224,2.88-2.483,6.875-2.483c5.688,0,7.739,2.52,7.739,6.011v6.768
		c0,3.707,0.432,4.463,0.432,5.219c0,0.864-3.131,1.152-4.031,1.152c-1.152,0-1.224-1.512-1.44-2.483
		c-0.252,0.468-1.979,2.735-5.291,2.735c-3.888,0-5.328-2.304-5.328-5.256C69.284,21.222,70.472,17.479,79.615,17.479z
		 M76.375,25.217c1.368,0,2.664-0.972,3.239-2.268V20.97c-3.419,0-5.039,0.936-5.039,2.664
		C74.576,24.533,75.188,25.217,76.375,25.217z"/>
	<path fill="#059B65" d="M88.922,16.65c0-3.6-0.432-4.355-0.432-5.075c0-0.864,3.131-1.152,4.031-1.152
		c1.152,0,1.224,1.44,1.44,2.34c1.044-1.368,3.024-2.735,5.363-2.735c3.6,0,5.292,1.836,5.292,5.831v12.202
		c0,0.756-0.648,1.152-2.16,1.152h-1.008c-1.512,0-2.16-0.396-2.16-1.152V16.65c0-1.404-0.576-2.231-2.16-2.231
		c-1.476,0-2.447,1.26-2.879,2.087v11.555c0,0.756-0.648,1.152-2.16,1.152h-1.008c-1.512,0-2.16-0.396-2.16-1.152V16.65z"/>
	<path fill="#059B65" d="M118.981,16.65c0-3.6-0.432-4.355-0.432-5.075c0-0.864,3.131-1.152,4.031-1.152
		c1.152,0,1.224,1.44,1.44,2.304c0.828-1.548,2.592-2.699,4.823-2.699c3.888,0,6.731,3.455,6.731,9.719
		c0,5.867-2.736,9.683-7.595,9.683c-1.692,0-2.916-0.576-3.671-1.116v7.092c0,0.756-0.648,1.151-2.16,1.151h-1.008
		c-1.512,0-2.16-0.396-2.16-1.151V16.65z M126.829,25.217c2.268,0,3.348-1.871,3.348-5.471c0-3.492-0.936-5.363-2.916-5.363
		c-1.368,0-2.304,1.008-2.952,2.123v8.027C124.885,24.857,125.713,25.217,126.829,25.217z"/>
	<path fill="#059B65" d="M146.088,10.027c5.651,0,7.775,4.283,7.775,9.286c0,0.612-1.368,2.124-1.836,2.124h-9.179
		c0.252,2.88,1.8,3.779,4.14,3.779c2.268,0,3.852-1.115,4.355-1.115c0.792,0,1.872,2.016,1.872,2.735c0,1.8-4.463,2.592-6.479,2.592
		c-6.515,0-9.395-3.779-9.395-9.575C137.341,12.763,140.941,10.027,146.088,10.027z M148.68,17.874c0-2.088-0.792-3.636-2.592-3.636
		c-1.512,0-2.808,0.864-3.24,3.636H148.68z"/>
	<path fill="#059B65" d="M156.832,16.65c0-3.6-0.432-4.355-0.432-5.075c0-0.864,3.131-1.152,4.031-1.152
		c1.152,0,1.224,1.44,1.44,2.34c0.756-1.368,1.836-2.735,3.924-2.735c1.764,0,2.051,1.224,2.051,1.943
		c0,0.684-0.396,3.023-1.116,3.023c-0.504,0-0.972-0.288-1.692-0.288c-1.476,0-2.447,1.08-2.879,1.8v11.555
		c0,0.756-0.648,1.152-2.16,1.152h-1.008c-1.512,0-2.16-0.396-2.16-1.152V16.65z"/>
	<path fill="#059B65" d="M170.727,24.209c0.468,0,1.836,1.008,3.528,1.008c1.512,0,2.196-0.54,2.196-1.619
		c0-3.168-7.199-1.296-7.199-7.739c0-3.6,2.556-5.831,6.623-5.831c1.188,0,5.328,0.252,5.328,2.268c0,0.468-0.828,2.663-1.548,2.663
		c-0.36,0-1.44-0.756-3.06-0.756c-1.224,0-1.944,0.396-1.944,1.296c0,2.628,7.199,1.26,7.199,7.667c0,3.78-2.699,6.264-6.731,6.264
		c-3.131,0-6.299-0.828-6.299-2.556C168.819,26.153,169.971,24.209,170.727,24.209z"/>
	<path fill="#059B65" d="M183.831,16.65c0-3.6-0.432-4.355-0.432-5.075c0-0.864,3.131-1.152,4.031-1.152
		c1.152,0,1.224,1.44,1.44,2.304c0.828-1.548,2.592-2.699,4.823-2.699c3.888,0,6.731,3.455,6.731,9.719
		c0,5.867-2.736,9.683-7.595,9.683c-1.692,0-2.916-0.576-3.671-1.116v7.092c0,0.756-0.648,1.151-2.16,1.151h-1.008
		c-1.512,0-2.16-0.396-2.16-1.151V16.65z M191.678,25.217c2.268,0,3.348-1.871,3.348-5.471c0-3.492-0.936-5.363-2.916-5.363
		c-1.368,0-2.304,1.008-2.952,2.123v8.027C189.734,24.857,190.562,25.217,191.678,25.217z"/>
	<path fill="#059B65" d="M210.938,10.027c5.651,0,7.775,4.283,7.775,9.286c0,0.612-1.368,2.124-1.836,2.124h-9.179
		c0.252,2.88,1.8,3.779,4.14,3.779c2.268,0,3.852-1.115,4.355-1.115c0.792,0,1.872,2.016,1.872,2.735c0,1.8-4.463,2.592-6.479,2.592
		c-6.515,0-9.395-3.779-9.395-9.575C202.191,12.763,205.791,10.027,210.938,10.027z M213.53,17.874c0-2.088-0.792-3.636-2.592-3.636
		c-1.512,0-2.808,0.864-3.24,3.636H213.53z"/>
	<path fill="#059B65" d="M229.585,10.027c2.556,0,5.975,0.827,5.975,2.483c0,0.684-1.296,2.771-1.908,2.771
		c-0.144,0-0.36-0.107-0.648-0.252c-0.648-0.324-1.62-0.792-3.131-0.792c-2.88,0-4.068,1.8-4.068,5.472
		c0,3.707,1.116,5.507,3.852,5.507c1.692,0,2.844-0.504,3.528-0.827c0.288-0.108,0.504-0.217,0.648-0.217
		c0.792,0,1.872,2.017,1.872,2.736c0,2.016-5.112,2.52-6.3,2.52c-6.155,0-9.071-3.132-9.071-9.575
		C220.334,13.446,223.142,10.027,229.585,10.027z"/>
	<path fill="#059B65" d="M238.693,14.526h-0.576c-0.756,0-1.079-0.54-1.079-1.8v-0.611c0-1.261,0.323-1.8,1.079-1.8h0.576
		l0.468-3.42c0.108-0.756,0.756-1.152,1.944-1.152h1.115c1.26,0,1.8,0.396,1.8,1.152v3.42h1.764c0.757,0,1.08,0.539,1.08,1.8v0.611
		c0,1.26-0.323,1.8-1.08,1.8h-1.764v9.143c0,1.08,0.36,1.548,1.296,1.548c0.324,0,0.756-0.144,0.973-0.144
		c0.72,0,1.115,2.304,1.115,2.592c0,1.655-2.34,1.764-3.455,1.764c-3.384,0-5.256-1.836-5.256-5.831V14.526z"/>
	<path fill="#059B65" d="M250.358,6.067V3.152c0-0.757,0.647-1.152,2.159-1.152h1.008c1.512,0,2.16,0.396,2.16,1.152v2.915
		c0,0.756-0.648,1.152-2.16,1.152h-1.008C251.006,7.22,250.358,6.823,250.358,6.067z M250.358,11.395
		c0-0.756,0.647-1.151,2.159-1.151h1.008c1.512,0,2.16,0.396,2.16,1.151v16.666c0,0.756-0.648,1.152-2.16,1.152h-1.008
		c-1.512,0-2.159-0.396-2.159-1.152V11.395z"/>
	<path fill="#059B65" d="M257.853,11.683c-0.071-0.252-0.144-0.468-0.144-0.647c0-0.504,0.684-0.792,2.195-0.792h1.188
		c1.044,0,1.836,0.18,2.016,0.756l2.124,6.659c0.252,0.863,0.647,2.771,1.008,4.355h0.144c0.324-1.584,0.756-3.527,1.008-4.355
		l2.124-6.659c0.18-0.576,0.972-0.756,2.016-0.756h0.9c1.512,0,2.159,0.288,2.159,0.792c0,0.18-0.036,0.396-0.108,0.647
		l-5.723,16.774c-0.18,0.575-0.972,0.756-2.016,0.756h-1.152c-1.044,0-1.836-0.181-2.016-0.756L257.853,11.683z"/>
	<path fill="#059B65" d="M283.915,10.027c5.651,0,7.775,4.283,7.775,9.286c0,0.612-1.368,2.124-1.836,2.124h-9.179
		c0.252,2.88,1.8,3.779,4.139,3.779c2.269,0,3.852-1.115,4.355-1.115c0.792,0,1.872,2.016,1.872,2.735
		c0,1.8-4.463,2.592-6.479,2.592c-6.515,0-9.395-3.779-9.395-9.575C275.168,12.763,278.768,10.027,283.915,10.027z M286.507,17.874
		c0-2.088-0.792-3.636-2.592-3.636c-1.512,0-2.808,0.864-3.239,3.636H286.507z"/>
</g>
</svg>
